# xmcd CD database file
#
# Track frame offsets:
#	150
#	42166
#	78532
#	123882
#	160335
#	184492
#	219542
#	251897
#	285236
#
# Disc length: 4174 seconds
#
# Revision: 1
# Processed by: cddbd v1.5.2PL0 Copyright (c) Steve Scherf et al.
# Submitted via: CDex 1.70beta2
#
DISCID=7e104c09
DTITLE=Peter Ind e.a. - 9 Classic Albums
DYEAR=2013
DGENRE=Jazz
TTITLE0=Undecided
TTITLE1=Broadway
TTITLE2=Jumpin' at the Woodside
TTITLE3=Sunflower
TTITLE4=Stairway to the Stars
TTITLE5=Movin' Around
TTITLE6=Kary's Trance
TTITLE7=Crazy She Calls Me
TTITLE8=Billie's Bounce
EXTD=YEAR: 2013
EXTT0=
EXTT1=
EXTT2=
EXTT3=
EXTT4=
EXTT5=
EXTT6=
EXTT7=
EXTT8=
PLAYORDER=
